<mxfile host="Electron" agent="Mozilla/5.0 (Windows NT 10.0; Win64; x64) AppleWebKit/537.36 (KHTML, like Gecko) draw.io/24.7.17 Chrome/128.0.6613.36 Electron/32.0.1 Safari/537.36" version="24.7.17" pages="6">
  <diagram id="C5RBs43oDa-KdzZeNtuy" name="MENU UTAMA">
    <mxGraphModel dx="955" dy="608" grid="1" gridSize="10" guides="1" tooltips="1" connect="1" arrows="1" fold="1" page="1" pageScale="1" pageWidth="827" pageHeight="1169" math="0" shadow="0">
      <root>
        <mxCell id="WIyWlLk6GJQsqaUBKTNV-0" />
        <mxCell id="WIyWlLk6GJQsqaUBKTNV-1" parent="WIyWlLk6GJQsqaUBKTNV-0" />
        <mxCell id="BOLqXezlnL5qrGqhOA5p-4" value="" style="edgeStyle=orthogonalEdgeStyle;rounded=0;orthogonalLoop=1;jettySize=auto;html=1;" edge="1" parent="WIyWlLk6GJQsqaUBKTNV-1" source="BOLqXezlnL5qrGqhOA5p-0" target="BOLqXezlnL5qrGqhOA5p-2">
          <mxGeometry relative="1" as="geometry" />
        </mxCell>
        <mxCell id="BOLqXezlnL5qrGqhOA5p-0" value="START" style="strokeWidth=2;html=1;shape=mxgraph.flowchart.terminator;whiteSpace=wrap;" vertex="1" parent="WIyWlLk6GJQsqaUBKTNV-1">
          <mxGeometry x="364" y="30" width="100" height="60" as="geometry" />
        </mxCell>
        <mxCell id="BOLqXezlnL5qrGqhOA5p-10" value="" style="edgeStyle=orthogonalEdgeStyle;rounded=0;orthogonalLoop=1;jettySize=auto;html=1;" edge="1" parent="WIyWlLk6GJQsqaUBKTNV-1" source="BOLqXezlnL5qrGqhOA5p-2" target="BOLqXezlnL5qrGqhOA5p-9">
          <mxGeometry relative="1" as="geometry" />
        </mxCell>
        <mxCell id="BOLqXezlnL5qrGqhOA5p-2" value="&lt;font style=&quot;font-size: 11px;&quot;&gt;1.LOGIN&lt;/font&gt;&lt;div style=&quot;font-size: 11px;&quot;&gt;&lt;font style=&quot;font-size: 11px;&quot;&gt;2.REG&lt;/font&gt;&lt;/div&gt;&lt;div style=&quot;font-size: 11px;&quot;&gt;&lt;font style=&quot;font-size: 11px;&quot;&gt;3.KELUAR&lt;/font&gt;&lt;/div&gt;" style="shape=parallelogram;html=1;strokeWidth=2;perimeter=parallelogramPerimeter;whiteSpace=wrap;rounded=1;arcSize=12;size=0.23;" vertex="1" parent="WIyWlLk6GJQsqaUBKTNV-1">
          <mxGeometry x="364" y="130" width="100" height="60" as="geometry" />
        </mxCell>
        <mxCell id="BOLqXezlnL5qrGqhOA5p-3" style="edgeStyle=orthogonalEdgeStyle;rounded=0;orthogonalLoop=1;jettySize=auto;html=1;exitX=0.5;exitY=1;exitDx=0;exitDy=0;exitPerimeter=0;" edge="1" parent="WIyWlLk6GJQsqaUBKTNV-1" source="BOLqXezlnL5qrGqhOA5p-0" target="BOLqXezlnL5qrGqhOA5p-0">
          <mxGeometry relative="1" as="geometry" />
        </mxCell>
        <mxCell id="BOLqXezlnL5qrGqhOA5p-7" value="" style="endArrow=classic;html=1;rounded=0;exitX=0.75;exitY=1;exitDx=0;exitDy=0;" edge="1" parent="WIyWlLk6GJQsqaUBKTNV-1" source="BOLqXezlnL5qrGqhOA5p-2">
          <mxGeometry width="50" height="50" relative="1" as="geometry">
            <mxPoint x="400" y="310" as="sourcePoint" />
            <mxPoint x="470" y="190" as="targetPoint" />
          </mxGeometry>
        </mxCell>
        <mxCell id="BOLqXezlnL5qrGqhOA5p-13" value="" style="edgeStyle=orthogonalEdgeStyle;rounded=0;orthogonalLoop=1;jettySize=auto;html=1;" edge="1" parent="WIyWlLk6GJQsqaUBKTNV-1" source="BOLqXezlnL5qrGqhOA5p-9" target="BOLqXezlnL5qrGqhOA5p-12">
          <mxGeometry relative="1" as="geometry" />
        </mxCell>
        <mxCell id="BOLqXezlnL5qrGqhOA5p-16" value="" style="edgeStyle=orthogonalEdgeStyle;rounded=0;orthogonalLoop=1;jettySize=auto;html=1;" edge="1" parent="WIyWlLk6GJQsqaUBKTNV-1" source="BOLqXezlnL5qrGqhOA5p-9" target="BOLqXezlnL5qrGqhOA5p-15">
          <mxGeometry relative="1" as="geometry" />
        </mxCell>
        <mxCell id="BOLqXezlnL5qrGqhOA5p-9" value="INPUT = 1" style="strokeWidth=2;html=1;shape=mxgraph.flowchart.decision;whiteSpace=wrap;" vertex="1" parent="WIyWlLk6GJQsqaUBKTNV-1">
          <mxGeometry x="364" y="240" width="100" height="100" as="geometry" />
        </mxCell>
        <mxCell id="BOLqXezlnL5qrGqhOA5p-20" value="" style="edgeStyle=orthogonalEdgeStyle;rounded=0;orthogonalLoop=1;jettySize=auto;html=1;entryX=0.5;entryY=0;entryDx=0;entryDy=0;entryPerimeter=0;" edge="1" parent="WIyWlLk6GJQsqaUBKTNV-1" source="BOLqXezlnL5qrGqhOA5p-11" target="BOLqXezlnL5qrGqhOA5p-24">
          <mxGeometry relative="1" as="geometry">
            <mxPoint x="729.9999999999998" y="380.0000000000001" as="targetPoint" />
          </mxGeometry>
        </mxCell>
        <mxCell id="BOLqXezlnL5qrGqhOA5p-11" value="INPUT = 3" style="strokeWidth=2;html=1;shape=mxgraph.flowchart.decision;whiteSpace=wrap;" vertex="1" parent="WIyWlLk6GJQsqaUBKTNV-1">
          <mxGeometry x="680" y="240" width="100" height="100" as="geometry" />
        </mxCell>
        <mxCell id="BOLqXezlnL5qrGqhOA5p-14" value="" style="edgeStyle=orthogonalEdgeStyle;rounded=0;orthogonalLoop=1;jettySize=auto;html=1;" edge="1" parent="WIyWlLk6GJQsqaUBKTNV-1" source="BOLqXezlnL5qrGqhOA5p-12" target="BOLqXezlnL5qrGqhOA5p-11">
          <mxGeometry relative="1" as="geometry" />
        </mxCell>
        <mxCell id="BOLqXezlnL5qrGqhOA5p-19" value="" style="edgeStyle=orthogonalEdgeStyle;rounded=0;orthogonalLoop=1;jettySize=auto;html=1;" edge="1" parent="WIyWlLk6GJQsqaUBKTNV-1" source="BOLqXezlnL5qrGqhOA5p-12" target="BOLqXezlnL5qrGqhOA5p-18">
          <mxGeometry relative="1" as="geometry" />
        </mxCell>
        <mxCell id="BOLqXezlnL5qrGqhOA5p-12" value="INPUT = 2" style="strokeWidth=2;html=1;shape=mxgraph.flowchart.decision;whiteSpace=wrap;" vertex="1" parent="WIyWlLk6GJQsqaUBKTNV-1">
          <mxGeometry x="520" y="240" width="100" height="100" as="geometry" />
        </mxCell>
        <mxCell id="BOLqXezlnL5qrGqhOA5p-15" value="" style="verticalLabelPosition=bottom;verticalAlign=top;html=1;shape=offPageConnector;rounded=0;size=0.5;" vertex="1" parent="WIyWlLk6GJQsqaUBKTNV-1">
          <mxGeometry x="384" y="390" width="60" height="60" as="geometry" />
        </mxCell>
        <mxCell id="BOLqXezlnL5qrGqhOA5p-18" value="" style="verticalLabelPosition=bottom;verticalAlign=top;html=1;shape=offPageConnector;rounded=0;size=0.5;" vertex="1" parent="WIyWlLk6GJQsqaUBKTNV-1">
          <mxGeometry x="540" y="390" width="60" height="60" as="geometry" />
        </mxCell>
        <mxCell id="BOLqXezlnL5qrGqhOA5p-21" value="LOGIN&lt;span style=&quot;color: rgba(0, 0, 0, 0); font-family: monospace; font-size: 0px; text-align: start;&quot;&gt;%3CmxGraphModel%3E%3Croot%3E%3CmxCell%20id%3D%220%22%2F%3E%3CmxCell%20id%3D%221%22%20parent%3D%220%22%2F%3E%3CmxCell%20id%3D%222%22%20value%3D%22%22%20style%3D%22verticalLabelPosition%3Dbottom%3BverticalAlign%3Dtop%3Bhtml%3D1%3Bshape%3DoffPageConnector%3Brounded%3D0%3Bsize%3D0.5%3B%22%20vertex%3D%221%22%20parent%3D%221%22%3E%3CmxGeometry%20x%3D%22384%22%20y%3D%22390%22%20width%3D%2260%22%20height%3D%2260%22%20as%3D%22geometry%22%2F%3E%3C%2FmxCell%3E%3C%2Froot%3E%3C%2FmxGraphModel%3E&lt;/span&gt;&lt;span style=&quot;color: rgba(0, 0, 0, 0); font-family: monospace; font-size: 0px; text-align: start;&quot;&gt;%3CmxGraphModel%3E%3Croot%3E%3CmxCell%20id%3D%220%22%2F%3E%3CmxCell%20id%3D%221%22%20parent%3D%220%22%2F%3E%3CmxCell%20id%3D%222%22%20value%3D%22%22%20style%3D%22verticalLabelPosition%3Dbottom%3BverticalAlign%3Dtop%3Bhtml%3D1%3Bshape%3DoffPageConnector%3Brounded%3D0%3Bsize%3D0.5%3B%22%20vertex%3D%221%22%20parent%3D%221%22%3E%3CmxGeometry%20x%3D%22384%22%20y%3D%22390%22%20width%3D%2260%22%20height%3D%2260%22%20as%3D%22geometry%22%2F%3E%3C%2FmxCell%3E%3C%2Froot%3E%3C%2FmxGraphModel%3E&lt;/span&gt;" style="text;html=1;align=center;verticalAlign=middle;resizable=0;points=[];autosize=1;strokeColor=none;fillColor=none;" vertex="1" parent="WIyWlLk6GJQsqaUBKTNV-1">
          <mxGeometry x="384" y="395" width="60" height="30" as="geometry" />
        </mxCell>
        <mxCell id="BOLqXezlnL5qrGqhOA5p-23" value="REGIS" style="text;html=1;align=center;verticalAlign=middle;resizable=0;points=[];autosize=1;strokeColor=none;fillColor=none;" vertex="1" parent="WIyWlLk6GJQsqaUBKTNV-1">
          <mxGeometry x="540" y="395" width="60" height="30" as="geometry" />
        </mxCell>
        <mxCell id="BOLqXezlnL5qrGqhOA5p-24" value="END" style="strokeWidth=2;html=1;shape=mxgraph.flowchart.terminator;whiteSpace=wrap;" vertex="1" parent="WIyWlLk6GJQsqaUBKTNV-1">
          <mxGeometry x="680" y="390" width="100" height="60" as="geometry" />
        </mxCell>
        <mxCell id="HMHyvj5eMhIeY2_JDXBc-0" value="" style="endArrow=classic;html=1;rounded=0;exitX=0.5;exitY=1;exitDx=0;exitDy=0;entryX=0;entryY=0.25;entryDx=0;entryDy=0;" edge="1" parent="WIyWlLk6GJQsqaUBKTNV-1" source="BOLqXezlnL5qrGqhOA5p-18" target="BOLqXezlnL5qrGqhOA5p-2">
          <mxGeometry width="50" height="50" relative="1" as="geometry">
            <mxPoint x="430" y="320" as="sourcePoint" />
            <mxPoint x="480" y="270" as="targetPoint" />
            <Array as="points">
              <mxPoint x="570" y="530" />
              <mxPoint x="240" y="530" />
              <mxPoint x="250" y="150" />
            </Array>
          </mxGeometry>
        </mxCell>
      </root>
    </mxGraphModel>
  </diagram>
  <diagram id="hzaYFyxmTgILk-SypR2x" name="MENU LOGIN">
    <mxGraphModel dx="955" dy="608" grid="1" gridSize="10" guides="1" tooltips="1" connect="1" arrows="1" fold="1" page="1" pageScale="1" pageWidth="900" pageHeight="1600" math="0" shadow="0">
      <root>
        <mxCell id="0" />
        <mxCell id="1" parent="0" />
        <mxCell id="8B4lpCCL33KDtuFoLZ_1-3" value="" style="edgeStyle=orthogonalEdgeStyle;rounded=0;orthogonalLoop=1;jettySize=auto;html=1;exitX=0.5;exitY=1;exitDx=0;exitDy=0;" edge="1" parent="1" source="8B4lpCCL33KDtuFoLZ_1-4" target="8B4lpCCL33KDtuFoLZ_1-2">
          <mxGeometry relative="1" as="geometry">
            <mxPoint x="450" y="70" as="sourcePoint" />
          </mxGeometry>
        </mxCell>
        <mxCell id="8B4lpCCL33KDtuFoLZ_1-7" value="" style="group" vertex="1" connectable="0" parent="1">
          <mxGeometry x="350" y="110" width="170" height="100" as="geometry" />
        </mxCell>
        <mxCell id="8B4lpCCL33KDtuFoLZ_1-2" value="&lt;font style=&quot;font-size: 10px;&quot;&gt;INPUT USER DAN PASSWORD&lt;/font&gt;" style="shape=parallelogram;html=1;strokeWidth=2;perimeter=parallelogramPerimeter;whiteSpace=wrap;rounded=1;arcSize=12;size=0.23;" vertex="1" parent="8B4lpCCL33KDtuFoLZ_1-7">
          <mxGeometry x="28.333333333333336" width="141.66666666666666" height="100" as="geometry" />
        </mxCell>
        <mxCell id="8B4lpCCL33KDtuFoLZ_1-6" value="" style="endArrow=classic;html=1;rounded=0;entryX=0.25;entryY=0;entryDx=0;entryDy=0;" edge="1" parent="8B4lpCCL33KDtuFoLZ_1-7" target="8B4lpCCL33KDtuFoLZ_1-2">
          <mxGeometry width="50" height="50" relative="1" as="geometry">
            <mxPoint as="sourcePoint" />
            <mxPoint x="127.5" y="266.66666666666663" as="targetPoint" />
          </mxGeometry>
        </mxCell>
        <mxCell id="8B4lpCCL33KDtuFoLZ_1-14" value="" style="edgeStyle=orthogonalEdgeStyle;rounded=0;orthogonalLoop=1;jettySize=auto;html=1;" edge="1" parent="1" source="8B4lpCCL33KDtuFoLZ_1-8" target="8B4lpCCL33KDtuFoLZ_1-13">
          <mxGeometry relative="1" as="geometry" />
        </mxCell>
        <mxCell id="8B4lpCCL33KDtuFoLZ_1-15" value="YES" style="edgeLabel;html=1;align=center;verticalAlign=middle;resizable=0;points=[];" vertex="1" connectable="0" parent="8B4lpCCL33KDtuFoLZ_1-14">
          <mxGeometry x="-0.248" y="1" relative="1" as="geometry">
            <mxPoint as="offset" />
          </mxGeometry>
        </mxCell>
        <mxCell id="8B4lpCCL33KDtuFoLZ_1-8" value="LOGIN VALID?" style="strokeWidth=2;html=1;shape=mxgraph.flowchart.decision;whiteSpace=wrap;" vertex="1" parent="1">
          <mxGeometry x="399.17" y="270" width="100" height="100" as="geometry" />
        </mxCell>
        <mxCell id="8B4lpCCL33KDtuFoLZ_1-9" value="" style="edgeStyle=orthogonalEdgeStyle;rounded=0;orthogonalLoop=1;jettySize=auto;html=1;" edge="1" parent="1" source="8B4lpCCL33KDtuFoLZ_1-2" target="8B4lpCCL33KDtuFoLZ_1-8">
          <mxGeometry relative="1" as="geometry" />
        </mxCell>
        <mxCell id="8B4lpCCL33KDtuFoLZ_1-10" value="" style="endArrow=classic;html=1;rounded=0;exitX=0;exitY=0.5;exitDx=0;exitDy=0;exitPerimeter=0;entryX=0;entryY=0.5;entryDx=0;entryDy=0;" edge="1" parent="1" source="8B4lpCCL33KDtuFoLZ_1-8" target="8B4lpCCL33KDtuFoLZ_1-2">
          <mxGeometry width="50" height="50" relative="1" as="geometry">
            <mxPoint x="420" y="320" as="sourcePoint" />
            <mxPoint x="290" y="150" as="targetPoint" />
            <Array as="points">
              <mxPoint x="290" y="320" />
              <mxPoint x="290" y="160" />
            </Array>
          </mxGeometry>
        </mxCell>
        <mxCell id="8B4lpCCL33KDtuFoLZ_1-11" value="NO" style="edgeLabel;html=1;align=center;verticalAlign=middle;resizable=0;points=[];" vertex="1" connectable="0" parent="8B4lpCCL33KDtuFoLZ_1-10">
          <mxGeometry x="0.0079" y="3" relative="1" as="geometry">
            <mxPoint as="offset" />
          </mxGeometry>
        </mxCell>
        <mxCell id="8B4lpCCL33KDtuFoLZ_1-18" value="" style="edgeStyle=orthogonalEdgeStyle;rounded=0;orthogonalLoop=1;jettySize=auto;html=1;exitX=1;exitY=0.5;exitDx=0;exitDy=0;" edge="1" parent="1" source="8B4lpCCL33KDtuFoLZ_1-13" target="8B4lpCCL33KDtuFoLZ_1-17">
          <mxGeometry relative="1" as="geometry">
            <mxPoint x="510.00000000000006" y="460" as="sourcePoint" />
          </mxGeometry>
        </mxCell>
        <mxCell id="8B4lpCCL33KDtuFoLZ_1-22" value="NO" style="edgeLabel;html=1;align=center;verticalAlign=middle;resizable=0;points=[];" vertex="1" connectable="0" parent="8B4lpCCL33KDtuFoLZ_1-18">
          <mxGeometry x="-0.1626" relative="1" as="geometry">
            <mxPoint as="offset" />
          </mxGeometry>
        </mxCell>
        <mxCell id="8B4lpCCL33KDtuFoLZ_1-32" value="" style="edgeStyle=orthogonalEdgeStyle;rounded=0;orthogonalLoop=1;jettySize=auto;html=1;entryX=0.5;entryY=0;entryDx=0;entryDy=0;" edge="1" parent="1" source="8B4lpCCL33KDtuFoLZ_1-13" target="8B4lpCCL33KDtuFoLZ_1-25">
          <mxGeometry relative="1" as="geometry" />
        </mxCell>
        <mxCell id="8B4lpCCL33KDtuFoLZ_1-13" value="ROLE = OWNER" style="rhombus;whiteSpace=wrap;html=1;" vertex="1" parent="1">
          <mxGeometry x="409.17" y="420" width="80" height="80" as="geometry" />
        </mxCell>
        <mxCell id="8B4lpCCL33KDtuFoLZ_1-42" value="" style="edgeStyle=orthogonalEdgeStyle;rounded=0;orthogonalLoop=1;jettySize=auto;html=1;" edge="1" parent="1" source="8B4lpCCL33KDtuFoLZ_1-16" target="8B4lpCCL33KDtuFoLZ_1-37">
          <mxGeometry relative="1" as="geometry" />
        </mxCell>
        <mxCell id="8B4lpCCL33KDtuFoLZ_1-16" value="ROLE = PEMBELI" style="rhombus;whiteSpace=wrap;html=1;" vertex="1" parent="1">
          <mxGeometry x="687.5" y="420" width="80" height="80" as="geometry" />
        </mxCell>
        <mxCell id="8B4lpCCL33KDtuFoLZ_1-19" value="" style="edgeStyle=orthogonalEdgeStyle;rounded=0;orthogonalLoop=1;jettySize=auto;html=1;" edge="1" parent="1" source="8B4lpCCL33KDtuFoLZ_1-17" target="8B4lpCCL33KDtuFoLZ_1-16">
          <mxGeometry relative="1" as="geometry" />
        </mxCell>
        <mxCell id="8B4lpCCL33KDtuFoLZ_1-21" value="NO" style="edgeLabel;html=1;align=center;verticalAlign=middle;resizable=0;points=[];" vertex="1" connectable="0" parent="8B4lpCCL33KDtuFoLZ_1-19">
          <mxGeometry x="-0.728" y="4" relative="1" as="geometry">
            <mxPoint as="offset" />
          </mxGeometry>
        </mxCell>
        <mxCell id="8B4lpCCL33KDtuFoLZ_1-41" value="" style="edgeStyle=orthogonalEdgeStyle;rounded=0;orthogonalLoop=1;jettySize=auto;html=1;" edge="1" parent="1" source="8B4lpCCL33KDtuFoLZ_1-17" target="8B4lpCCL33KDtuFoLZ_1-40">
          <mxGeometry relative="1" as="geometry" />
        </mxCell>
        <mxCell id="8B4lpCCL33KDtuFoLZ_1-17" value="ROLE = ADMIN" style="rhombus;whiteSpace=wrap;html=1;" vertex="1" parent="1">
          <mxGeometry x="540.83" y="420" width="80" height="80" as="geometry" />
        </mxCell>
        <mxCell id="8B4lpCCL33KDtuFoLZ_1-23" value="" style="group" vertex="1" connectable="0" parent="1">
          <mxGeometry x="420" width="60" height="60" as="geometry" />
        </mxCell>
        <mxCell id="8B4lpCCL33KDtuFoLZ_1-4" value="" style="verticalLabelPosition=bottom;verticalAlign=top;html=1;shape=offPageConnector;rounded=0;size=0.5;" vertex="1" parent="8B4lpCCL33KDtuFoLZ_1-23">
          <mxGeometry width="60" height="60" as="geometry" />
        </mxCell>
        <mxCell id="8B4lpCCL33KDtuFoLZ_1-5" value="LOGIN" style="text;html=1;align=center;verticalAlign=middle;resizable=0;points=[];autosize=1;strokeColor=none;fillColor=none;" vertex="1" parent="8B4lpCCL33KDtuFoLZ_1-23">
          <mxGeometry y="10" width="60" height="30" as="geometry" />
        </mxCell>
        <mxCell id="8B4lpCCL33KDtuFoLZ_1-24" value="" style="group" vertex="1" connectable="0" parent="1">
          <mxGeometry x="419.17" y="540" width="65" height="60" as="geometry" />
        </mxCell>
        <mxCell id="8B4lpCCL33KDtuFoLZ_1-25" value="" style="verticalLabelPosition=bottom;verticalAlign=top;html=1;shape=offPageConnector;rounded=0;size=0.5;" vertex="1" parent="8B4lpCCL33KDtuFoLZ_1-24">
          <mxGeometry width="60" height="60" as="geometry" />
        </mxCell>
        <mxCell id="8B4lpCCL33KDtuFoLZ_1-26" value="OWNER" style="text;html=1;align=center;verticalAlign=middle;resizable=0;points=[];autosize=1;strokeColor=none;fillColor=none;" vertex="1" parent="8B4lpCCL33KDtuFoLZ_1-24">
          <mxGeometry x="-5" y="10" width="70" height="30" as="geometry" />
        </mxCell>
        <mxCell id="8B4lpCCL33KDtuFoLZ_1-35" value="" style="group" vertex="1" connectable="0" parent="1">
          <mxGeometry x="695" y="540" width="72.5" height="60" as="geometry" />
        </mxCell>
        <mxCell id="8B4lpCCL33KDtuFoLZ_1-36" value="" style="verticalLabelPosition=bottom;verticalAlign=top;html=1;shape=offPageConnector;rounded=0;size=0.5;" vertex="1" parent="8B4lpCCL33KDtuFoLZ_1-35">
          <mxGeometry width="60" height="60" as="geometry" />
        </mxCell>
        <mxCell id="8B4lpCCL33KDtuFoLZ_1-37" value="PEMBELI" style="text;html=1;align=center;verticalAlign=middle;resizable=0;points=[];autosize=1;strokeColor=none;fillColor=none;" vertex="1" parent="8B4lpCCL33KDtuFoLZ_1-35">
          <mxGeometry x="-7.5" width="80" height="30" as="geometry" />
        </mxCell>
        <mxCell id="8B4lpCCL33KDtuFoLZ_1-38" value="" style="group" vertex="1" connectable="0" parent="1">
          <mxGeometry x="548.33" y="540" width="65" height="60" as="geometry" />
        </mxCell>
        <mxCell id="8B4lpCCL33KDtuFoLZ_1-39" value="" style="verticalLabelPosition=bottom;verticalAlign=top;html=1;shape=offPageConnector;rounded=0;size=0.5;" vertex="1" parent="8B4lpCCL33KDtuFoLZ_1-38">
          <mxGeometry width="60" height="60" as="geometry" />
        </mxCell>
        <mxCell id="8B4lpCCL33KDtuFoLZ_1-40" value="ADMIN" style="text;html=1;align=center;verticalAlign=middle;resizable=0;points=[];autosize=1;strokeColor=none;fillColor=none;" vertex="1" parent="8B4lpCCL33KDtuFoLZ_1-38">
          <mxGeometry x="2.5" width="60" height="30" as="geometry" />
        </mxCell>
      </root>
    </mxGraphModel>
  </diagram>
  <diagram id="EFHXwjC6YjnsuE6nN8mt" name="MENU REGIS">
    <mxGraphModel dx="1050" dy="3869" grid="1" gridSize="10" guides="1" tooltips="1" connect="1" arrows="1" fold="1" page="1" pageScale="1" pageWidth="900" pageHeight="1600" math="0" shadow="0">
      <root>
        <mxCell id="0" />
        <mxCell id="1" parent="0" />
        <mxCell id="wtDenOQbHcIyTdM5Xqff-4" value="" style="edgeStyle=orthogonalEdgeStyle;rounded=0;orthogonalLoop=1;jettySize=auto;html=1;" edge="1" parent="1" source="wtDenOQbHcIyTdM5Xqff-1" target="wtDenOQbHcIyTdM5Xqff-3">
          <mxGeometry relative="1" as="geometry" />
        </mxCell>
        <mxCell id="wtDenOQbHcIyTdM5Xqff-1" value="" style="verticalLabelPosition=bottom;verticalAlign=top;html=1;shape=offPageConnector;rounded=0;size=0.5;" vertex="1" parent="1">
          <mxGeometry x="460" y="-1620" width="60" height="60" as="geometry" />
        </mxCell>
        <mxCell id="wtDenOQbHcIyTdM5Xqff-2" value="REGIS" style="text;html=1;align=center;verticalAlign=middle;resizable=0;points=[];autosize=1;strokeColor=none;fillColor=none;" vertex="1" parent="1">
          <mxGeometry x="460" y="-1620" width="60" height="30" as="geometry" />
        </mxCell>
        <mxCell id="wtDenOQbHcIyTdM5Xqff-7" value="" style="edgeStyle=orthogonalEdgeStyle;rounded=0;orthogonalLoop=1;jettySize=auto;html=1;" edge="1" parent="1" source="wtDenOQbHcIyTdM5Xqff-3" target="wtDenOQbHcIyTdM5Xqff-6">
          <mxGeometry relative="1" as="geometry" />
        </mxCell>
        <mxCell id="wtDenOQbHcIyTdM5Xqff-3" value="INPUT USER" style="shape=parallelogram;html=1;strokeWidth=2;perimeter=parallelogramPerimeter;whiteSpace=wrap;rounded=1;arcSize=12;size=0.23;" vertex="1" parent="1">
          <mxGeometry x="440" y="-1520" width="100" height="60" as="geometry" />
        </mxCell>
        <mxCell id="wtDenOQbHcIyTdM5Xqff-5" value="" style="endArrow=classic;html=1;rounded=0;entryX=0.25;entryY=0;entryDx=0;entryDy=0;" edge="1" parent="1" target="wtDenOQbHcIyTdM5Xqff-3">
          <mxGeometry width="50" height="50" relative="1" as="geometry">
            <mxPoint x="400" y="-1520" as="sourcePoint" />
            <mxPoint x="470" y="-1460" as="targetPoint" />
          </mxGeometry>
        </mxCell>
        <mxCell id="wtDenOQbHcIyTdM5Xqff-10" value="" style="edgeStyle=orthogonalEdgeStyle;rounded=0;orthogonalLoop=1;jettySize=auto;html=1;" edge="1" parent="1" source="wtDenOQbHcIyTdM5Xqff-6" target="wtDenOQbHcIyTdM5Xqff-9">
          <mxGeometry relative="1" as="geometry" />
        </mxCell>
        <mxCell id="wtDenOQbHcIyTdM5Xqff-6" value="APAKAH USER TERSEDIA?" style="strokeWidth=2;html=1;shape=mxgraph.flowchart.decision;whiteSpace=wrap;" vertex="1" parent="1">
          <mxGeometry x="440" y="-1410" width="100" height="100" as="geometry" />
        </mxCell>
        <mxCell id="wtDenOQbHcIyTdM5Xqff-8" value="" style="endArrow=classic;html=1;rounded=0;exitX=0.052;exitY=0.412;exitDx=0;exitDy=0;exitPerimeter=0;entryX=0;entryY=0.5;entryDx=0;entryDy=0;" edge="1" parent="1" source="wtDenOQbHcIyTdM5Xqff-6" target="wtDenOQbHcIyTdM5Xqff-3">
          <mxGeometry width="50" height="50" relative="1" as="geometry">
            <mxPoint x="420" y="-1380" as="sourcePoint" />
            <mxPoint x="470" y="-1430" as="targetPoint" />
            <Array as="points">
              <mxPoint x="360" y="-1370" />
              <mxPoint x="360" y="-1490" />
            </Array>
          </mxGeometry>
        </mxCell>
        <mxCell id="wtDenOQbHcIyTdM5Xqff-13" value="" style="edgeStyle=orthogonalEdgeStyle;rounded=0;orthogonalLoop=1;jettySize=auto;html=1;" edge="1" parent="1" source="wtDenOQbHcIyTdM5Xqff-9" target="wtDenOQbHcIyTdM5Xqff-12">
          <mxGeometry relative="1" as="geometry" />
        </mxCell>
        <mxCell id="wtDenOQbHcIyTdM5Xqff-9" value="INPUT PASSWORD" style="shape=parallelogram;html=1;strokeWidth=2;perimeter=parallelogramPerimeter;whiteSpace=wrap;rounded=1;arcSize=12;size=0.23;" vertex="1" parent="1">
          <mxGeometry x="440" y="-1270" width="100" height="60" as="geometry" />
        </mxCell>
        <mxCell id="wtDenOQbHcIyTdM5Xqff-11" value="" style="endArrow=classic;html=1;rounded=0;entryX=0.25;entryY=0;entryDx=0;entryDy=0;" edge="1" parent="1" target="wtDenOQbHcIyTdM5Xqff-9">
          <mxGeometry width="50" height="50" relative="1" as="geometry">
            <mxPoint x="410" y="-1270" as="sourcePoint" />
            <mxPoint x="475" y="-1510" as="targetPoint" />
          </mxGeometry>
        </mxCell>
        <mxCell id="wtDenOQbHcIyTdM5Xqff-15" value="" style="edgeStyle=orthogonalEdgeStyle;rounded=0;orthogonalLoop=1;jettySize=auto;html=1;entryX=0.5;entryY=0;entryDx=0;entryDy=0;entryPerimeter=0;" edge="1" parent="1" source="wtDenOQbHcIyTdM5Xqff-12" target="GAWPUPqQbPwH-0puVHQ6-1">
          <mxGeometry relative="1" as="geometry">
            <mxPoint x="490" y="-1070" as="targetPoint" />
          </mxGeometry>
        </mxCell>
        <mxCell id="wtDenOQbHcIyTdM5Xqff-12" value="TAMBAH USER BARU" style="rounded=1;whiteSpace=wrap;html=1;absoluteArcSize=1;arcSize=14;strokeWidth=2;" vertex="1" parent="1">
          <mxGeometry x="440" y="-1160" width="100" height="40" as="geometry" />
        </mxCell>
        <mxCell id="GAWPUPqQbPwH-0puVHQ6-1" value="END" style="strokeWidth=2;html=1;shape=mxgraph.flowchart.terminator;whiteSpace=wrap;" vertex="1" parent="1">
          <mxGeometry x="440" y="-1070" width="100" height="60" as="geometry" />
        </mxCell>
      </root>
    </mxGraphModel>
  </diagram>
  <diagram id="Zby2PunhTHg9YBzmv1Mp" name="MENU OWNER">
    <mxGraphModel dx="750" dy="478" grid="1" gridSize="10" guides="1" tooltips="1" connect="1" arrows="1" fold="1" page="1" pageScale="1" pageWidth="900" pageHeight="1600" math="0" shadow="0">
      <root>
        <mxCell id="0" />
        <mxCell id="1" parent="0" />
        <mxCell id="u7DOHJphOixYkT2y7QyJ-4" value="" style="edgeStyle=orthogonalEdgeStyle;rounded=0;orthogonalLoop=1;jettySize=auto;html=1;" edge="1" parent="1" source="u7DOHJphOixYkT2y7QyJ-1" target="u7DOHJphOixYkT2y7QyJ-3">
          <mxGeometry relative="1" as="geometry" />
        </mxCell>
        <mxCell id="u7DOHJphOixYkT2y7QyJ-1" value="" style="verticalLabelPosition=bottom;verticalAlign=top;html=1;shape=offPageConnector;rounded=0;size=0.5;" vertex="1" parent="1">
          <mxGeometry x="360" y="30" width="60" height="60" as="geometry" />
        </mxCell>
        <mxCell id="u7DOHJphOixYkT2y7QyJ-2" value="OWNER" style="text;html=1;align=center;verticalAlign=middle;resizable=0;points=[];autosize=1;strokeColor=none;fillColor=none;" vertex="1" parent="1">
          <mxGeometry x="355" y="40" width="70" height="30" as="geometry" />
        </mxCell>
        <mxCell id="u7DOHJphOixYkT2y7QyJ-3" value="INPUT:&lt;div&gt;1.LIHAT PRODUK&lt;/div&gt;&lt;div&gt;2&lt;/div&gt;&lt;div&gt;3.&lt;/div&gt;&lt;div&gt;4.&lt;/div&gt;&lt;div&gt;5.&lt;/div&gt;&lt;div&gt;0.LOGOUT&lt;/div&gt;" style="shape=parallelogram;html=1;strokeWidth=2;perimeter=parallelogramPerimeter;whiteSpace=wrap;rounded=1;arcSize=12;size=0.23;" vertex="1" parent="1">
          <mxGeometry x="300" y="150" width="180" height="120" as="geometry" />
        </mxCell>
        <mxCell id="u7DOHJphOixYkT2y7QyJ-5" value="" style="endArrow=classic;html=1;rounded=0;exitX=0.446;exitY=1.018;exitDx=0;exitDy=0;exitPerimeter=0;" edge="1" parent="1" source="u7DOHJphOixYkT2y7QyJ-3" target="u7DOHJphOixYkT2y7QyJ-24">
          <mxGeometry width="50" height="50" relative="1" as="geometry">
            <mxPoint x="410" y="340" as="sourcePoint" />
            <mxPoint x="380" y="310" as="targetPoint" />
          </mxGeometry>
        </mxCell>
        <mxCell id="u7DOHJphOixYkT2y7QyJ-9" value="" style="group" vertex="1" connectable="0" parent="1">
          <mxGeometry x="490" y="510" width="60" height="60" as="geometry" />
        </mxCell>
        <mxCell id="u7DOHJphOixYkT2y7QyJ-10" value="" style="verticalLabelPosition=bottom;verticalAlign=top;html=1;shape=mxgraph.flowchart.on-page_reference;" vertex="1" parent="u7DOHJphOixYkT2y7QyJ-9">
          <mxGeometry width="60" height="60" as="geometry" />
        </mxCell>
        <mxCell id="u7DOHJphOixYkT2y7QyJ-11" value="2" style="text;html=1;align=center;verticalAlign=middle;resizable=0;points=[];autosize=1;strokeColor=none;fillColor=none;" vertex="1" parent="u7DOHJphOixYkT2y7QyJ-9">
          <mxGeometry x="15" y="15" width="30" height="30" as="geometry" />
        </mxCell>
        <mxCell id="u7DOHJphOixYkT2y7QyJ-12" value="" style="group" vertex="1" connectable="0" parent="1">
          <mxGeometry x="630" y="510" width="60" height="60" as="geometry" />
        </mxCell>
        <mxCell id="u7DOHJphOixYkT2y7QyJ-13" value="" style="verticalLabelPosition=bottom;verticalAlign=top;html=1;shape=mxgraph.flowchart.on-page_reference;" vertex="1" parent="u7DOHJphOixYkT2y7QyJ-12">
          <mxGeometry width="60" height="60" as="geometry" />
        </mxCell>
        <mxCell id="u7DOHJphOixYkT2y7QyJ-14" value="3" style="text;html=1;align=center;verticalAlign=middle;resizable=0;points=[];autosize=1;strokeColor=none;fillColor=none;" vertex="1" parent="u7DOHJphOixYkT2y7QyJ-12">
          <mxGeometry x="15" y="15" width="30" height="30" as="geometry" />
        </mxCell>
        <mxCell id="u7DOHJphOixYkT2y7QyJ-15" value="" style="group" vertex="1" connectable="0" parent="1">
          <mxGeometry x="770" y="510" width="60" height="60" as="geometry" />
        </mxCell>
        <mxCell id="u7DOHJphOixYkT2y7QyJ-16" value="" style="verticalLabelPosition=bottom;verticalAlign=top;html=1;shape=mxgraph.flowchart.on-page_reference;" vertex="1" parent="u7DOHJphOixYkT2y7QyJ-15">
          <mxGeometry width="60" height="60" as="geometry" />
        </mxCell>
        <mxCell id="u7DOHJphOixYkT2y7QyJ-17" value="4" style="text;html=1;align=center;verticalAlign=middle;resizable=0;points=[];autosize=1;strokeColor=none;fillColor=none;" vertex="1" parent="u7DOHJphOixYkT2y7QyJ-15">
          <mxGeometry x="15" y="15" width="30" height="30" as="geometry" />
        </mxCell>
        <mxCell id="u7DOHJphOixYkT2y7QyJ-21" value="" style="group" vertex="1" connectable="0" parent="1">
          <mxGeometry x="910" y="510" width="60" height="60" as="geometry" />
        </mxCell>
        <mxCell id="u7DOHJphOixYkT2y7QyJ-22" value="" style="verticalLabelPosition=bottom;verticalAlign=top;html=1;shape=mxgraph.flowchart.on-page_reference;" vertex="1" parent="u7DOHJphOixYkT2y7QyJ-21">
          <mxGeometry width="60" height="60" as="geometry" />
        </mxCell>
        <mxCell id="u7DOHJphOixYkT2y7QyJ-23" value="5" style="text;html=1;align=center;verticalAlign=middle;resizable=0;points=[];autosize=1;strokeColor=none;fillColor=none;" vertex="1" parent="u7DOHJphOixYkT2y7QyJ-21">
          <mxGeometry x="15" y="15" width="30" height="30" as="geometry" />
        </mxCell>
        <mxCell id="u7DOHJphOixYkT2y7QyJ-30" value="" style="edgeStyle=orthogonalEdgeStyle;rounded=0;orthogonalLoop=1;jettySize=auto;html=1;" edge="1" parent="1" source="u7DOHJphOixYkT2y7QyJ-24" target="u7DOHJphOixYkT2y7QyJ-29">
          <mxGeometry relative="1" as="geometry" />
        </mxCell>
        <mxCell id="u7DOHJphOixYkT2y7QyJ-49" value="NO" style="edgeLabel;html=1;align=center;verticalAlign=middle;resizable=0;points=[];" vertex="1" connectable="0" parent="u7DOHJphOixYkT2y7QyJ-30">
          <mxGeometry x="-0.4167" y="-1" relative="1" as="geometry">
            <mxPoint as="offset" />
          </mxGeometry>
        </mxCell>
        <mxCell id="u7DOHJphOixYkT2y7QyJ-47" value="" style="edgeStyle=orthogonalEdgeStyle;rounded=0;orthogonalLoop=1;jettySize=auto;html=1;entryX=0.5;entryY=0;entryDx=0;entryDy=0;entryPerimeter=0;exitX=0.5;exitY=1;exitDx=0;exitDy=0;exitPerimeter=0;" edge="1" parent="1" source="u7DOHJphOixYkT2y7QyJ-24" target="u7DOHJphOixYkT2y7QyJ-45">
          <mxGeometry relative="1" as="geometry">
            <mxPoint x="380" y="490" as="sourcePoint" />
          </mxGeometry>
        </mxCell>
        <mxCell id="u7DOHJphOixYkT2y7QyJ-48" value="YES" style="edgeLabel;html=1;align=center;verticalAlign=middle;resizable=0;points=[];" vertex="1" connectable="0" parent="u7DOHJphOixYkT2y7QyJ-47">
          <mxGeometry x="-0.4524" y="-2" relative="1" as="geometry">
            <mxPoint as="offset" />
          </mxGeometry>
        </mxCell>
        <mxCell id="u7DOHJphOixYkT2y7QyJ-24" value="PILIHAN = 1?" style="strokeWidth=2;html=1;shape=mxgraph.flowchart.decision;whiteSpace=wrap;" vertex="1" parent="1">
          <mxGeometry x="330" y="340" width="100" height="100" as="geometry" />
        </mxCell>
        <mxCell id="u7DOHJphOixYkT2y7QyJ-25" value="PILIHAN = 0?" style="strokeWidth=2;html=1;shape=mxgraph.flowchart.decision;whiteSpace=wrap;" vertex="1" parent="1">
          <mxGeometry x="1030" y="340" width="100" height="100" as="geometry" />
        </mxCell>
        <mxCell id="u7DOHJphOixYkT2y7QyJ-34" value="" style="edgeStyle=orthogonalEdgeStyle;rounded=0;orthogonalLoop=1;jettySize=auto;html=1;" edge="1" parent="1" source="u7DOHJphOixYkT2y7QyJ-26" target="u7DOHJphOixYkT2y7QyJ-25">
          <mxGeometry relative="1" as="geometry" />
        </mxCell>
        <mxCell id="u7DOHJphOixYkT2y7QyJ-56" value="NO" style="edgeLabel;html=1;align=center;verticalAlign=middle;resizable=0;points=[];" vertex="1" connectable="0" parent="u7DOHJphOixYkT2y7QyJ-34">
          <mxGeometry x="-0.25" y="-4" relative="1" as="geometry">
            <mxPoint as="offset" />
          </mxGeometry>
        </mxCell>
        <mxCell id="u7DOHJphOixYkT2y7QyJ-39" value="" style="edgeStyle=orthogonalEdgeStyle;rounded=0;orthogonalLoop=1;jettySize=auto;html=1;entryX=0.5;entryY=0;entryDx=0;entryDy=0;entryPerimeter=0;exitX=0.5;exitY=1;exitDx=0;exitDy=0;exitPerimeter=0;" edge="1" parent="1" source="u7DOHJphOixYkT2y7QyJ-26" target="u7DOHJphOixYkT2y7QyJ-22">
          <mxGeometry relative="1" as="geometry">
            <mxPoint x="940" y="490" as="sourcePoint" />
          </mxGeometry>
        </mxCell>
        <mxCell id="u7DOHJphOixYkT2y7QyJ-57" value="YES" style="edgeLabel;html=1;align=center;verticalAlign=middle;resizable=0;points=[];" vertex="1" connectable="0" parent="u7DOHJphOixYkT2y7QyJ-39">
          <mxGeometry x="-0.0238" relative="1" as="geometry">
            <mxPoint as="offset" />
          </mxGeometry>
        </mxCell>
        <mxCell id="u7DOHJphOixYkT2y7QyJ-26" value="PILIHAN = 5?" style="strokeWidth=2;html=1;shape=mxgraph.flowchart.decision;whiteSpace=wrap;" vertex="1" parent="1">
          <mxGeometry x="890" y="340" width="100" height="100" as="geometry" />
        </mxCell>
        <mxCell id="u7DOHJphOixYkT2y7QyJ-33" value="" style="edgeStyle=orthogonalEdgeStyle;rounded=0;orthogonalLoop=1;jettySize=auto;html=1;" edge="1" parent="1" source="u7DOHJphOixYkT2y7QyJ-27" target="u7DOHJphOixYkT2y7QyJ-26">
          <mxGeometry relative="1" as="geometry" />
        </mxCell>
        <mxCell id="u7DOHJphOixYkT2y7QyJ-55" value="NO" style="edgeLabel;html=1;align=center;verticalAlign=middle;resizable=0;points=[];" vertex="1" connectable="0" parent="u7DOHJphOixYkT2y7QyJ-33">
          <mxGeometry x="-0.125" relative="1" as="geometry">
            <mxPoint as="offset" />
          </mxGeometry>
        </mxCell>
        <mxCell id="u7DOHJphOixYkT2y7QyJ-42" value="" style="edgeStyle=orthogonalEdgeStyle;rounded=0;orthogonalLoop=1;jettySize=auto;html=1;exitX=0.5;exitY=1;exitDx=0;exitDy=0;exitPerimeter=0;" edge="1" parent="1" source="u7DOHJphOixYkT2y7QyJ-27">
          <mxGeometry relative="1" as="geometry">
            <mxPoint x="800" y="490" as="sourcePoint" />
            <mxPoint x="800" y="510" as="targetPoint" />
          </mxGeometry>
        </mxCell>
        <mxCell id="u7DOHJphOixYkT2y7QyJ-54" value="YES" style="edgeLabel;html=1;align=center;verticalAlign=middle;resizable=0;points=[];" vertex="1" connectable="0" parent="u7DOHJphOixYkT2y7QyJ-42">
          <mxGeometry x="-0.2672" y="-2" relative="1" as="geometry">
            <mxPoint as="offset" />
          </mxGeometry>
        </mxCell>
        <mxCell id="u7DOHJphOixYkT2y7QyJ-27" value="PILIHAN = 4?" style="strokeWidth=2;html=1;shape=mxgraph.flowchart.decision;whiteSpace=wrap;" vertex="1" parent="1">
          <mxGeometry x="750" y="340" width="100" height="100" as="geometry" />
        </mxCell>
        <mxCell id="u7DOHJphOixYkT2y7QyJ-32" value="" style="edgeStyle=orthogonalEdgeStyle;rounded=0;orthogonalLoop=1;jettySize=auto;html=1;" edge="1" parent="1" source="u7DOHJphOixYkT2y7QyJ-28" target="u7DOHJphOixYkT2y7QyJ-27">
          <mxGeometry relative="1" as="geometry" />
        </mxCell>
        <mxCell id="u7DOHJphOixYkT2y7QyJ-53" value="NO" style="edgeLabel;html=1;align=center;verticalAlign=middle;resizable=0;points=[];" vertex="1" connectable="0" parent="u7DOHJphOixYkT2y7QyJ-32">
          <mxGeometry x="-0.4167" y="3" relative="1" as="geometry">
            <mxPoint as="offset" />
          </mxGeometry>
        </mxCell>
        <mxCell id="u7DOHJphOixYkT2y7QyJ-41" value="" style="edgeStyle=orthogonalEdgeStyle;rounded=0;orthogonalLoop=1;jettySize=auto;html=1;exitX=0.5;exitY=1;exitDx=0;exitDy=0;exitPerimeter=0;" edge="1" parent="1" source="u7DOHJphOixYkT2y7QyJ-28">
          <mxGeometry relative="1" as="geometry">
            <mxPoint x="660" y="490" as="sourcePoint" />
            <mxPoint x="660" y="510" as="targetPoint" />
          </mxGeometry>
        </mxCell>
        <mxCell id="u7DOHJphOixYkT2y7QyJ-52" value="YES" style="edgeLabel;html=1;align=center;verticalAlign=middle;resizable=0;points=[];" vertex="1" connectable="0" parent="u7DOHJphOixYkT2y7QyJ-41">
          <mxGeometry x="-0.3381" y="3" relative="1" as="geometry">
            <mxPoint as="offset" />
          </mxGeometry>
        </mxCell>
        <mxCell id="u7DOHJphOixYkT2y7QyJ-28" value="PILIHAN = 3?" style="strokeWidth=2;html=1;shape=mxgraph.flowchart.decision;whiteSpace=wrap;" vertex="1" parent="1">
          <mxGeometry x="610" y="340" width="100" height="100" as="geometry" />
        </mxCell>
        <mxCell id="u7DOHJphOixYkT2y7QyJ-31" value="" style="edgeStyle=orthogonalEdgeStyle;rounded=0;orthogonalLoop=1;jettySize=auto;html=1;" edge="1" parent="1" source="u7DOHJphOixYkT2y7QyJ-29" target="u7DOHJphOixYkT2y7QyJ-28">
          <mxGeometry relative="1" as="geometry" />
        </mxCell>
        <mxCell id="u7DOHJphOixYkT2y7QyJ-51" value="NO" style="edgeLabel;html=1;align=center;verticalAlign=middle;resizable=0;points=[];" vertex="1" connectable="0" parent="u7DOHJphOixYkT2y7QyJ-31">
          <mxGeometry x="-0.25" y="-1" relative="1" as="geometry">
            <mxPoint as="offset" />
          </mxGeometry>
        </mxCell>
        <mxCell id="u7DOHJphOixYkT2y7QyJ-40" value="" style="edgeStyle=orthogonalEdgeStyle;rounded=0;orthogonalLoop=1;jettySize=auto;html=1;exitX=0.5;exitY=1;exitDx=0;exitDy=0;exitPerimeter=0;" edge="1" parent="1" source="u7DOHJphOixYkT2y7QyJ-29">
          <mxGeometry relative="1" as="geometry">
            <mxPoint x="520" y="490" as="sourcePoint" />
            <mxPoint x="520" y="510" as="targetPoint" />
          </mxGeometry>
        </mxCell>
        <mxCell id="u7DOHJphOixYkT2y7QyJ-50" value="YES" style="edgeLabel;html=1;align=center;verticalAlign=middle;resizable=0;points=[];" vertex="1" connectable="0" parent="u7DOHJphOixYkT2y7QyJ-40">
          <mxGeometry x="-0.1253" y="-2" relative="1" as="geometry">
            <mxPoint as="offset" />
          </mxGeometry>
        </mxCell>
        <mxCell id="u7DOHJphOixYkT2y7QyJ-29" value="PILIHAN = 2?" style="strokeWidth=2;html=1;shape=mxgraph.flowchart.decision;whiteSpace=wrap;" vertex="1" parent="1">
          <mxGeometry x="470" y="340" width="100" height="100" as="geometry" />
        </mxCell>
        <mxCell id="u7DOHJphOixYkT2y7QyJ-44" value="" style="group" vertex="1" connectable="0" parent="1">
          <mxGeometry x="350" y="510" width="60" height="60" as="geometry" />
        </mxCell>
        <mxCell id="u7DOHJphOixYkT2y7QyJ-45" value="" style="verticalLabelPosition=bottom;verticalAlign=top;html=1;shape=mxgraph.flowchart.on-page_reference;" vertex="1" parent="u7DOHJphOixYkT2y7QyJ-44">
          <mxGeometry width="60" height="60" as="geometry" />
        </mxCell>
        <mxCell id="u7DOHJphOixYkT2y7QyJ-46" value="1" style="text;html=1;align=center;verticalAlign=middle;resizable=0;points=[];autosize=1;strokeColor=none;fillColor=none;" vertex="1" parent="u7DOHJphOixYkT2y7QyJ-44">
          <mxGeometry x="15" y="15" width="30" height="30" as="geometry" />
        </mxCell>
        <mxCell id="u7DOHJphOixYkT2y7QyJ-58" value="" style="endArrow=classic;html=1;rounded=0;exitX=0.5;exitY=1;exitDx=0;exitDy=0;exitPerimeter=0;entryX=0;entryY=0.5;entryDx=0;entryDy=0;" edge="1" parent="1" source="u7DOHJphOixYkT2y7QyJ-22" target="u7DOHJphOixYkT2y7QyJ-3">
          <mxGeometry width="50" height="50" relative="1" as="geometry">
            <mxPoint x="660" y="640" as="sourcePoint" />
            <mxPoint x="280" y="670" as="targetPoint" />
            <Array as="points">
              <mxPoint x="940" y="680" />
              <mxPoint x="80" y="680" />
              <mxPoint x="90" y="210" />
            </Array>
          </mxGeometry>
        </mxCell>
        <mxCell id="u7DOHJphOixYkT2y7QyJ-61" value="" style="endArrow=none;html=1;rounded=0;exitX=0.5;exitY=1;exitDx=0;exitDy=0;exitPerimeter=0;" edge="1" parent="1" source="u7DOHJphOixYkT2y7QyJ-13">
          <mxGeometry width="50" height="50" relative="1" as="geometry">
            <mxPoint x="530" y="630" as="sourcePoint" />
            <mxPoint x="660" y="680" as="targetPoint" />
          </mxGeometry>
        </mxCell>
        <mxCell id="u7DOHJphOixYkT2y7QyJ-62" value="" style="endArrow=none;html=1;rounded=0;entryX=0.5;entryY=1;entryDx=0;entryDy=0;entryPerimeter=0;" edge="1" parent="1" target="u7DOHJphOixYkT2y7QyJ-16">
          <mxGeometry width="50" height="50" relative="1" as="geometry">
            <mxPoint x="800" y="680" as="sourcePoint" />
            <mxPoint x="580" y="580" as="targetPoint" />
          </mxGeometry>
        </mxCell>
        <mxCell id="u7DOHJphOixYkT2y7QyJ-64" value="" style="endArrow=classic;html=1;rounded=0;exitX=0.5;exitY=1;exitDx=0;exitDy=0;exitPerimeter=0;" edge="1" parent="1" source="u7DOHJphOixYkT2y7QyJ-45">
          <mxGeometry width="50" height="50" relative="1" as="geometry">
            <mxPoint x="270" y="620" as="sourcePoint" />
            <mxPoint x="280" y="680" as="targetPoint" />
            <Array as="points">
              <mxPoint x="380" y="680" />
            </Array>
          </mxGeometry>
        </mxCell>
        <mxCell id="u7DOHJphOixYkT2y7QyJ-65" value="" style="endArrow=classic;html=1;rounded=0;exitX=0.5;exitY=1;exitDx=0;exitDy=0;exitPerimeter=0;" edge="1" parent="1" source="u7DOHJphOixYkT2y7QyJ-10">
          <mxGeometry width="50" height="50" relative="1" as="geometry">
            <mxPoint x="270" y="620" as="sourcePoint" />
            <mxPoint x="430" y="680" as="targetPoint" />
            <Array as="points">
              <mxPoint x="520" y="680" />
            </Array>
          </mxGeometry>
        </mxCell>
        <mxCell id="u7DOHJphOixYkT2y7QyJ-66" value="" style="endArrow=classic;html=1;rounded=0;exitX=0.5;exitY=1;exitDx=0;exitDy=0;exitPerimeter=0;" edge="1" parent="1">
          <mxGeometry width="50" height="50" relative="1" as="geometry">
            <mxPoint x="940" y="570" as="sourcePoint" />
            <mxPoint x="850" y="680" as="targetPoint" />
            <Array as="points">
              <mxPoint x="940" y="680" />
            </Array>
          </mxGeometry>
        </mxCell>
        <mxCell id="u7DOHJphOixYkT2y7QyJ-67" value="" style="endArrow=classic;html=1;rounded=0;exitX=0.5;exitY=1;exitDx=0;exitDy=0;exitPerimeter=0;" edge="1" parent="1" source="u7DOHJphOixYkT2y7QyJ-16">
          <mxGeometry width="50" height="50" relative="1" as="geometry">
            <mxPoint x="540" y="590" as="sourcePoint" />
            <mxPoint x="700" y="680" as="targetPoint" />
            <Array as="points">
              <mxPoint x="800" y="680" />
            </Array>
          </mxGeometry>
        </mxCell>
        <mxCell id="u7DOHJphOixYkT2y7QyJ-68" value="" style="endArrow=classic;html=1;rounded=0;exitX=0.5;exitY=1;exitDx=0;exitDy=0;exitPerimeter=0;" edge="1" parent="1" source="u7DOHJphOixYkT2y7QyJ-13">
          <mxGeometry width="50" height="50" relative="1" as="geometry">
            <mxPoint x="550" y="600" as="sourcePoint" />
            <mxPoint x="570" y="680" as="targetPoint" />
            <Array as="points">
              <mxPoint x="660" y="680" />
            </Array>
          </mxGeometry>
        </mxCell>
        <mxCell id="-e6u4AbI2TLuOFVbv9kL-3" value="" style="group" vertex="1" connectable="0" parent="1">
          <mxGeometry x="160" y="790" width="60" height="60" as="geometry" />
        </mxCell>
        <mxCell id="-e6u4AbI2TLuOFVbv9kL-1" value="" style="verticalLabelPosition=bottom;verticalAlign=top;html=1;shape=mxgraph.flowchart.on-page_reference;" vertex="1" parent="-e6u4AbI2TLuOFVbv9kL-3">
          <mxGeometry width="60" height="60" as="geometry" />
        </mxCell>
        <mxCell id="-e6u4AbI2TLuOFVbv9kL-2" value="1" style="text;html=1;align=center;verticalAlign=middle;resizable=0;points=[];autosize=1;strokeColor=none;fillColor=none;" vertex="1" parent="-e6u4AbI2TLuOFVbv9kL-3">
          <mxGeometry x="15" y="15" width="30" height="30" as="geometry" />
        </mxCell>
        <mxCell id="-e6u4AbI2TLuOFVbv9kL-4" value="" style="endArrow=classic;html=1;rounded=0;exitX=0.5;exitY=1;exitDx=0;exitDy=0;exitPerimeter=0;" edge="1" parent="1" source="-e6u4AbI2TLuOFVbv9kL-1">
          <mxGeometry width="50" height="50" relative="1" as="geometry">
            <mxPoint x="140" y="950" as="sourcePoint" />
            <mxPoint x="190" y="900" as="targetPoint" />
          </mxGeometry>
        </mxCell>
        <mxCell id="-e6u4AbI2TLuOFVbv9kL-7" value="" style="edgeStyle=orthogonalEdgeStyle;rounded=0;orthogonalLoop=1;jettySize=auto;html=1;" edge="1" parent="1" source="-e6u4AbI2TLuOFVbv9kL-5" target="-e6u4AbI2TLuOFVbv9kL-6">
          <mxGeometry relative="1" as="geometry" />
        </mxCell>
        <mxCell id="-e6u4AbI2TLuOFVbv9kL-5" value="1.MEJA&lt;div&gt;2.KURSI&lt;/div&gt;&lt;div&gt;3.LEMARI&lt;/div&gt;" style="shape=parallelogram;html=1;strokeWidth=2;perimeter=parallelogramPerimeter;whiteSpace=wrap;rounded=1;arcSize=12;size=0.23;" vertex="1" parent="1">
          <mxGeometry x="140" y="900" width="100" height="60" as="geometry" />
        </mxCell>
        <mxCell id="-e6u4AbI2TLuOFVbv9kL-10" value="" style="edgeStyle=orthogonalEdgeStyle;rounded=0;orthogonalLoop=1;jettySize=auto;html=1;" edge="1" parent="1" source="-e6u4AbI2TLuOFVbv9kL-6" target="-e6u4AbI2TLuOFVbv9kL-9">
          <mxGeometry relative="1" as="geometry" />
        </mxCell>
        <mxCell id="-e6u4AbI2TLuOFVbv9kL-12" value="NO" style="edgeLabel;html=1;align=center;verticalAlign=middle;resizable=0;points=[];" vertex="1" connectable="0" parent="-e6u4AbI2TLuOFVbv9kL-10">
          <mxGeometry x="-0.1333" y="-1" relative="1" as="geometry">
            <mxPoint as="offset" />
          </mxGeometry>
        </mxCell>
        <mxCell id="-e6u4AbI2TLuOFVbv9kL-17" value="" style="edgeStyle=orthogonalEdgeStyle;rounded=0;orthogonalLoop=1;jettySize=auto;html=1;" edge="1" parent="1" source="-e6u4AbI2TLuOFVbv9kL-6" target="-e6u4AbI2TLuOFVbv9kL-16">
          <mxGeometry relative="1" as="geometry" />
        </mxCell>
        <mxCell id="-e6u4AbI2TLuOFVbv9kL-6" value="PILIHAN = 1" style="strokeWidth=2;html=1;shape=mxgraph.flowchart.decision;whiteSpace=wrap;" vertex="1" parent="1">
          <mxGeometry x="140" y="1010" width="100" height="100" as="geometry" />
        </mxCell>
        <mxCell id="-e6u4AbI2TLuOFVbv9kL-21" value="" style="edgeStyle=orthogonalEdgeStyle;rounded=0;orthogonalLoop=1;jettySize=auto;html=1;" edge="1" parent="1" source="-e6u4AbI2TLuOFVbv9kL-8" target="-e6u4AbI2TLuOFVbv9kL-18">
          <mxGeometry relative="1" as="geometry" />
        </mxCell>
        <mxCell id="-e6u4AbI2TLuOFVbv9kL-8" value="PILIHAN = 3" style="strokeWidth=2;html=1;shape=mxgraph.flowchart.decision;whiteSpace=wrap;" vertex="1" parent="1">
          <mxGeometry x="450" y="1010" width="100" height="100" as="geometry" />
        </mxCell>
        <mxCell id="-e6u4AbI2TLuOFVbv9kL-11" value="" style="edgeStyle=orthogonalEdgeStyle;rounded=0;orthogonalLoop=1;jettySize=auto;html=1;" edge="1" parent="1" source="-e6u4AbI2TLuOFVbv9kL-9" target="-e6u4AbI2TLuOFVbv9kL-8">
          <mxGeometry relative="1" as="geometry" />
        </mxCell>
        <mxCell id="-e6u4AbI2TLuOFVbv9kL-13" value="NO" style="edgeLabel;html=1;align=center;verticalAlign=middle;resizable=0;points=[];" vertex="1" connectable="0" parent="-e6u4AbI2TLuOFVbv9kL-11">
          <mxGeometry x="-0.2083" y="-2" relative="1" as="geometry">
            <mxPoint as="offset" />
          </mxGeometry>
        </mxCell>
        <mxCell id="-e6u4AbI2TLuOFVbv9kL-20" value="" style="edgeStyle=orthogonalEdgeStyle;rounded=0;orthogonalLoop=1;jettySize=auto;html=1;" edge="1" parent="1" source="-e6u4AbI2TLuOFVbv9kL-9" target="-e6u4AbI2TLuOFVbv9kL-19">
          <mxGeometry relative="1" as="geometry" />
        </mxCell>
        <mxCell id="-e6u4AbI2TLuOFVbv9kL-9" value="PILIHAN = 2" style="strokeWidth=2;html=1;shape=mxgraph.flowchart.decision;whiteSpace=wrap;" vertex="1" parent="1">
          <mxGeometry x="290" y="1010" width="100" height="100" as="geometry" />
        </mxCell>
        <mxCell id="-e6u4AbI2TLuOFVbv9kL-16" value="TAMPILKAN PRODUK" style="shape=parallelogram;html=1;strokeWidth=2;perimeter=parallelogramPerimeter;whiteSpace=wrap;rounded=1;arcSize=12;size=0.23;" vertex="1" parent="1">
          <mxGeometry x="140" y="1150" width="100" height="60" as="geometry" />
        </mxCell>
        <mxCell id="-e6u4AbI2TLuOFVbv9kL-18" value="TAMPILKAN PRODUK" style="shape=parallelogram;html=1;strokeWidth=2;perimeter=parallelogramPerimeter;whiteSpace=wrap;rounded=1;arcSize=12;size=0.23;" vertex="1" parent="1">
          <mxGeometry x="450" y="1150" width="100" height="60" as="geometry" />
        </mxCell>
        <mxCell id="-e6u4AbI2TLuOFVbv9kL-19" value="TAMPILKAN PRODUK" style="shape=parallelogram;html=1;strokeWidth=2;perimeter=parallelogramPerimeter;whiteSpace=wrap;rounded=1;arcSize=12;size=0.23;" vertex="1" parent="1">
          <mxGeometry x="290" y="1150" width="100" height="60" as="geometry" />
        </mxCell>
        <mxCell id="-e6u4AbI2TLuOFVbv9kL-22" value="" style="endArrow=classic;html=1;rounded=0;entryX=0.25;entryY=0;entryDx=0;entryDy=0;" edge="1" parent="1" target="-e6u4AbI2TLuOFVbv9kL-5">
          <mxGeometry width="50" height="50" relative="1" as="geometry">
            <mxPoint x="120" y="900" as="sourcePoint" />
            <mxPoint x="120" y="900" as="targetPoint" />
          </mxGeometry>
        </mxCell>
        <mxCell id="-e6u4AbI2TLuOFVbv9kL-23" value="" style="endArrow=classic;html=1;rounded=0;exitX=0.75;exitY=1;exitDx=0;exitDy=0;" edge="1" parent="1" source="-e6u4AbI2TLuOFVbv9kL-16">
          <mxGeometry width="50" height="50" relative="1" as="geometry">
            <mxPoint x="110" y="1090" as="sourcePoint" />
            <mxPoint x="260" y="1210" as="targetPoint" />
          </mxGeometry>
        </mxCell>
        <mxCell id="-e6u4AbI2TLuOFVbv9kL-24" value="" style="endArrow=classic;html=1;rounded=0;exitX=0.75;exitY=1;exitDx=0;exitDy=0;" edge="1" parent="1">
          <mxGeometry width="50" height="50" relative="1" as="geometry">
            <mxPoint x="520" y="1209.17" as="sourcePoint" />
            <mxPoint x="565" y="1209.17" as="targetPoint" />
          </mxGeometry>
        </mxCell>
        <mxCell id="-e6u4AbI2TLuOFVbv9kL-25" value="" style="endArrow=classic;html=1;rounded=0;exitX=0.75;exitY=1;exitDx=0;exitDy=0;" edge="1" parent="1">
          <mxGeometry width="50" height="50" relative="1" as="geometry">
            <mxPoint x="360" y="1209.17" as="sourcePoint" />
            <mxPoint x="405" y="1209.17" as="targetPoint" />
          </mxGeometry>
        </mxCell>
        <mxCell id="-e6u4AbI2TLuOFVbv9kL-26" value="" style="group" vertex="1" connectable="0" parent="1">
          <mxGeometry x="830" y="790" width="60" height="60" as="geometry" />
        </mxCell>
        <mxCell id="-e6u4AbI2TLuOFVbv9kL-27" value="" style="verticalLabelPosition=bottom;verticalAlign=top;html=1;shape=mxgraph.flowchart.on-page_reference;" vertex="1" parent="-e6u4AbI2TLuOFVbv9kL-26">
          <mxGeometry width="60" height="60" as="geometry" />
        </mxCell>
        <mxCell id="-e6u4AbI2TLuOFVbv9kL-28" value="2" style="text;html=1;align=center;verticalAlign=middle;resizable=0;points=[];autosize=1;strokeColor=none;fillColor=none;" vertex="1" parent="-e6u4AbI2TLuOFVbv9kL-26">
          <mxGeometry x="15" y="15" width="30" height="30" as="geometry" />
        </mxCell>
        <mxCell id="-e6u4AbI2TLuOFVbv9kL-29" value="" style="endArrow=classic;html=1;rounded=0;exitX=0.5;exitY=1;exitDx=0;exitDy=0;exitPerimeter=0;" edge="1" parent="1" source="-e6u4AbI2TLuOFVbv9kL-27" target="-e6u4AbI2TLuOFVbv9kL-30">
          <mxGeometry width="50" height="50" relative="1" as="geometry">
            <mxPoint x="520" y="890" as="sourcePoint" />
            <mxPoint x="860" y="900" as="targetPoint" />
          </mxGeometry>
        </mxCell>
        <mxCell id="-e6u4AbI2TLuOFVbv9kL-32" value="" style="edgeStyle=orthogonalEdgeStyle;rounded=0;orthogonalLoop=1;jettySize=auto;html=1;" edge="1" parent="1" source="-e6u4AbI2TLuOFVbv9kL-30" target="-e6u4AbI2TLuOFVbv9kL-31">
          <mxGeometry relative="1" as="geometry" />
        </mxCell>
        <mxCell id="-e6u4AbI2TLuOFVbv9kL-30" value="INPUT&amp;nbsp;&lt;div&gt;JENIS&lt;/div&gt;&lt;div&gt;NAMA&amp;nbsp;&lt;/div&gt;&lt;div&gt;HARGA&amp;nbsp;&lt;/div&gt;&lt;div&gt;STOK&lt;/div&gt;" style="shape=parallelogram;html=1;strokeWidth=2;perimeter=parallelogramPerimeter;whiteSpace=wrap;rounded=1;arcSize=12;size=0.23;" vertex="1" parent="1">
          <mxGeometry x="795" y="890" width="130" height="80" as="geometry" />
        </mxCell>
        <mxCell id="-e6u4AbI2TLuOFVbv9kL-36" value="" style="edgeStyle=orthogonalEdgeStyle;rounded=0;orthogonalLoop=1;jettySize=auto;html=1;" edge="1" parent="1" source="-e6u4AbI2TLuOFVbv9kL-31" target="-e6u4AbI2TLuOFVbv9kL-35">
          <mxGeometry relative="1" as="geometry" />
        </mxCell>
        <mxCell id="-e6u4AbI2TLuOFVbv9kL-31" value="TAMBAHKAN DATA" style="rounded=1;whiteSpace=wrap;html=1;absoluteArcSize=1;arcSize=14;strokeWidth=2;" vertex="1" parent="1">
          <mxGeometry x="810" y="1020" width="100" height="30" as="geometry" />
        </mxCell>
        <mxCell id="-e6u4AbI2TLuOFVbv9kL-33" value="" style="endArrow=classic;html=1;rounded=0;entryX=0.25;entryY=0;entryDx=0;entryDy=0;" edge="1" parent="1">
          <mxGeometry width="50" height="50" relative="1" as="geometry">
            <mxPoint x="777.5" y="890" as="sourcePoint" />
            <mxPoint x="822.5" y="890" as="targetPoint" />
          </mxGeometry>
        </mxCell>
        <mxCell id="-e6u4AbI2TLuOFVbv9kL-35" value="OUTPUT:&lt;div&gt;DATA BERHASIL DITAMBAHKAN&lt;/div&gt;" style="shape=parallelogram;html=1;strokeWidth=2;perimeter=parallelogramPerimeter;whiteSpace=wrap;rounded=1;arcSize=12;size=0.23;" vertex="1" parent="1">
          <mxGeometry x="795" y="1100" width="130" height="80" as="geometry" />
        </mxCell>
        <mxCell id="-e6u4AbI2TLuOFVbv9kL-37" value="" style="endArrow=classic;html=1;rounded=0;exitX=0.75;exitY=1;exitDx=0;exitDy=0;" edge="1" parent="1" source="-e6u4AbI2TLuOFVbv9kL-35">
          <mxGeometry width="50" height="50" relative="1" as="geometry">
            <mxPoint x="910" y="1190" as="sourcePoint" />
            <mxPoint x="930" y="1180" as="targetPoint" />
          </mxGeometry>
        </mxCell>
        <mxCell id="-e6u4AbI2TLuOFVbv9kL-38" value="" style="group" vertex="1" connectable="0" parent="1">
          <mxGeometry x="1328" y="800" width="60" height="60" as="geometry" />
        </mxCell>
        <mxCell id="-e6u4AbI2TLuOFVbv9kL-39" value="" style="verticalLabelPosition=bottom;verticalAlign=top;html=1;shape=mxgraph.flowchart.on-page_reference;" vertex="1" parent="-e6u4AbI2TLuOFVbv9kL-38">
          <mxGeometry width="60" height="60" as="geometry" />
        </mxCell>
        <mxCell id="-e6u4AbI2TLuOFVbv9kL-40" value="3" style="text;html=1;align=center;verticalAlign=middle;resizable=0;points=[];autosize=1;strokeColor=none;fillColor=none;" vertex="1" parent="-e6u4AbI2TLuOFVbv9kL-38">
          <mxGeometry x="15" y="15" width="30" height="30" as="geometry" />
        </mxCell>
        <mxCell id="-e6u4AbI2TLuOFVbv9kL-41" value="" style="group" vertex="1" connectable="0" parent="1">
          <mxGeometry x="1288" y="900" width="120" height="60" as="geometry" />
        </mxCell>
        <mxCell id="-e6u4AbI2TLuOFVbv9kL-42" value="&lt;blockquote style=&quot;margin: 0px 20px; border: none; padding: 0px;&quot;&gt;&lt;span style=&quot;font-size: 10px;&quot;&gt;INPUT : JENIS&amp;nbsp;&lt;/span&gt;&lt;/blockquote&gt;" style="shape=parallelogram;html=1;strokeWidth=2;perimeter=parallelogramPerimeter;whiteSpace=wrap;rounded=1;arcSize=12;size=0.23;" vertex="1" parent="-e6u4AbI2TLuOFVbv9kL-41">
          <mxGeometry x="20" width="100" height="60" as="geometry" />
        </mxCell>
        <mxCell id="-e6u4AbI2TLuOFVbv9kL-43" value="" style="endArrow=classic;html=1;rounded=0;entryX=0.25;entryY=0;entryDx=0;entryDy=0;" edge="1" parent="-e6u4AbI2TLuOFVbv9kL-41" target="-e6u4AbI2TLuOFVbv9kL-42">
          <mxGeometry width="50" height="50" relative="1" as="geometry">
            <mxPoint y="0.44000000000005457" as="sourcePoint" />
            <mxPoint x="-60" y="-52.559999999999945" as="targetPoint" />
          </mxGeometry>
        </mxCell>
        <mxCell id="-e6u4AbI2TLuOFVbv9kL-44" value="" style="edgeStyle=orthogonalEdgeStyle;rounded=0;orthogonalLoop=1;jettySize=auto;html=1;" edge="1" parent="1" source="-e6u4AbI2TLuOFVbv9kL-45" target="-e6u4AbI2TLuOFVbv9kL-52">
          <mxGeometry relative="1" as="geometry" />
        </mxCell>
        <mxCell id="-e6u4AbI2TLuOFVbv9kL-45" value="&lt;font size=&quot;1&quot;&gt;EDIT DATA PRODUK&lt;/font&gt;" style="rounded=1;whiteSpace=wrap;html=1;absoluteArcSize=1;arcSize=14;strokeWidth=2;" vertex="1" parent="1">
          <mxGeometry x="1313" y="1090" width="90" height="30" as="geometry" />
        </mxCell>
        <mxCell id="-e6u4AbI2TLuOFVbv9kL-46" value="" style="group" vertex="1" connectable="0" parent="1">
          <mxGeometry x="1283" y="990" width="120" height="60" as="geometry" />
        </mxCell>
        <mxCell id="-e6u4AbI2TLuOFVbv9kL-47" value="&lt;blockquote style=&quot;margin: 0px 20px; border: none; padding: 0px;&quot;&gt;&lt;span style=&quot;font-size: 10px;&quot;&gt;INPUT DATA BARU&lt;/span&gt;&lt;/blockquote&gt;" style="shape=parallelogram;html=1;strokeWidth=2;perimeter=parallelogramPerimeter;whiteSpace=wrap;rounded=1;arcSize=12;size=0.23;" vertex="1" parent="-e6u4AbI2TLuOFVbv9kL-46">
          <mxGeometry x="25" width="100" height="60" as="geometry" />
        </mxCell>
        <mxCell id="-e6u4AbI2TLuOFVbv9kL-48" value="" style="endArrow=classic;html=1;rounded=0;entryX=0.25;entryY=0;entryDx=0;entryDy=0;" edge="1" parent="-e6u4AbI2TLuOFVbv9kL-46" target="-e6u4AbI2TLuOFVbv9kL-47">
          <mxGeometry width="50" height="50" relative="1" as="geometry">
            <mxPoint y="0.44000000000005457" as="sourcePoint" />
            <mxPoint x="-60" y="-52.559999999999945" as="targetPoint" />
          </mxGeometry>
        </mxCell>
        <mxCell id="-e6u4AbI2TLuOFVbv9kL-49" value="" style="edgeStyle=orthogonalEdgeStyle;rounded=0;orthogonalLoop=1;jettySize=auto;html=1;" edge="1" parent="1" source="-e6u4AbI2TLuOFVbv9kL-42" target="-e6u4AbI2TLuOFVbv9kL-47">
          <mxGeometry relative="1" as="geometry" />
        </mxCell>
        <mxCell id="-e6u4AbI2TLuOFVbv9kL-50" value="" style="edgeStyle=orthogonalEdgeStyle;rounded=0;orthogonalLoop=1;jettySize=auto;html=1;" edge="1" parent="1" source="-e6u4AbI2TLuOFVbv9kL-47" target="-e6u4AbI2TLuOFVbv9kL-45">
          <mxGeometry relative="1" as="geometry" />
        </mxCell>
        <mxCell id="-e6u4AbI2TLuOFVbv9kL-51" value="" style="group" vertex="1" connectable="0" parent="1">
          <mxGeometry x="1299.25" y="1160" width="117.5" height="80" as="geometry" />
        </mxCell>
        <mxCell id="-e6u4AbI2TLuOFVbv9kL-52" value="&lt;blockquote style=&quot;margin: 0px 20px; border: none; padding: 0px;&quot;&gt;&lt;font size=&quot;1&quot;&gt;OUTPUT KOLEKSI BERHASIL DITAMBAHKAN&lt;/font&gt;&lt;/blockquote&gt;" style="shape=parallelogram;html=1;strokeWidth=2;perimeter=parallelogramPerimeter;whiteSpace=wrap;rounded=1;arcSize=12;size=0.23;" vertex="1" parent="-e6u4AbI2TLuOFVbv9kL-51">
          <mxGeometry x="1.25" width="115" height="70" as="geometry" />
        </mxCell>
        <mxCell id="-e6u4AbI2TLuOFVbv9kL-53" value="" style="endArrow=classic;html=1;rounded=0;exitX=0.75;exitY=1;exitDx=0;exitDy=0;" edge="1" parent="-e6u4AbI2TLuOFVbv9kL-51" source="-e6u4AbI2TLuOFVbv9kL-52">
          <mxGeometry width="50" height="50" relative="1" as="geometry">
            <mxPoint x="-12.5" y="-28" as="sourcePoint" />
            <mxPoint x="118.75" y="70" as="targetPoint" />
          </mxGeometry>
        </mxCell>
        <mxCell id="-e6u4AbI2TLuOFVbv9kL-54" value="" style="edgeStyle=orthogonalEdgeStyle;rounded=0;orthogonalLoop=1;jettySize=auto;html=1;" edge="1" parent="1" target="-e6u4AbI2TLuOFVbv9kL-42">
          <mxGeometry relative="1" as="geometry">
            <mxPoint x="1358" y="860" as="sourcePoint" />
          </mxGeometry>
        </mxCell>
        <mxCell id="-e6u4AbI2TLuOFVbv9kL-56" value="" style="verticalLabelPosition=bottom;verticalAlign=top;html=1;shape=mxgraph.flowchart.on-page_reference;" vertex="1" parent="1">
          <mxGeometry x="1620" y="800" width="60" height="60" as="geometry" />
        </mxCell>
        <mxCell id="-e6u4AbI2TLuOFVbv9kL-60" value="" style="edgeStyle=orthogonalEdgeStyle;rounded=0;orthogonalLoop=1;jettySize=auto;html=1;" edge="1" parent="1" target="-e6u4AbI2TLuOFVbv9kL-59">
          <mxGeometry relative="1" as="geometry">
            <mxPoint x="1650" y="860" as="sourcePoint" />
          </mxGeometry>
        </mxCell>
        <mxCell id="-e6u4AbI2TLuOFVbv9kL-58" value="4" style="text;html=1;align=center;verticalAlign=middle;resizable=0;points=[];autosize=1;strokeColor=none;fillColor=none;" vertex="1" parent="1">
          <mxGeometry x="1635" y="815" width="30" height="30" as="geometry" />
        </mxCell>
        <mxCell id="-e6u4AbI2TLuOFVbv9kL-59" value="INPUT: PILIH DATA YANG MAU DIHAPUS" style="shape=parallelogram;html=1;strokeWidth=2;perimeter=parallelogramPerimeter;whiteSpace=wrap;rounded=1;arcSize=12;size=0.23;" vertex="1" parent="1">
          <mxGeometry x="1600" y="910" width="100" height="60" as="geometry" />
        </mxCell>
        <mxCell id="-e6u4AbI2TLuOFVbv9kL-61" value="" style="endArrow=classic;html=1;rounded=0;entryX=0.25;entryY=0;entryDx=0;entryDy=0;" edge="1" parent="1" target="-e6u4AbI2TLuOFVbv9kL-59">
          <mxGeometry width="50" height="50" relative="1" as="geometry">
            <mxPoint x="1580" y="910" as="sourcePoint" />
            <mxPoint x="1630" y="940" as="targetPoint" />
          </mxGeometry>
        </mxCell>
        <mxCell id="-e6u4AbI2TLuOFVbv9kL-62" value="" style="endArrow=classic;html=1;rounded=0;exitX=0.42;exitY=1.031;exitDx=0;exitDy=0;exitPerimeter=0;" edge="1" parent="1" source="-e6u4AbI2TLuOFVbv9kL-59">
          <mxGeometry width="50" height="50" relative="1" as="geometry">
            <mxPoint x="1580" y="990" as="sourcePoint" />
            <mxPoint x="1642" y="1000" as="targetPoint" />
          </mxGeometry>
        </mxCell>
        <mxCell id="-e6u4AbI2TLuOFVbv9kL-63" value="" style="edgeStyle=orthogonalEdgeStyle;rounded=0;orthogonalLoop=1;jettySize=auto;html=1;" edge="1" parent="1" source="-e6u4AbI2TLuOFVbv9kL-64" target="-e6u4AbI2TLuOFVbv9kL-66">
          <mxGeometry relative="1" as="geometry" />
        </mxCell>
        <mxCell id="-e6u4AbI2TLuOFVbv9kL-64" value="&lt;font size=&quot;1&quot;&gt;HAPUS DATA PRODUK&lt;/font&gt;" style="rounded=1;whiteSpace=wrap;html=1;absoluteArcSize=1;arcSize=14;strokeWidth=2;" vertex="1" parent="1">
          <mxGeometry x="1593.75" y="1000" width="90" height="30" as="geometry" />
        </mxCell>
        <mxCell id="-e6u4AbI2TLuOFVbv9kL-65" value="" style="group" vertex="1" connectable="0" parent="1">
          <mxGeometry x="1580" y="1070" width="117.5" height="80" as="geometry" />
        </mxCell>
        <mxCell id="-e6u4AbI2TLuOFVbv9kL-66" value="&lt;blockquote style=&quot;margin: 0px 20px; border: none; padding: 0px;&quot;&gt;&lt;font size=&quot;1&quot;&gt;OUTPUT :&lt;/font&gt;&lt;/blockquote&gt;&lt;blockquote style=&quot;margin: 0px 20px; border: none; padding: 0px;&quot;&gt;&lt;font size=&quot;1&quot;&gt;DATA BERHASIL DIHAPUS&lt;/font&gt;&lt;/blockquote&gt;" style="shape=parallelogram;html=1;strokeWidth=2;perimeter=parallelogramPerimeter;whiteSpace=wrap;rounded=1;arcSize=12;size=0.23;" vertex="1" parent="-e6u4AbI2TLuOFVbv9kL-65">
          <mxGeometry x="1.25" width="115" height="70" as="geometry" />
        </mxCell>
        <mxCell id="-e6u4AbI2TLuOFVbv9kL-67" value="" style="endArrow=classic;html=1;rounded=0;exitX=0.75;exitY=1;exitDx=0;exitDy=0;" edge="1" parent="-e6u4AbI2TLuOFVbv9kL-65" source="-e6u4AbI2TLuOFVbv9kL-66">
          <mxGeometry width="50" height="50" relative="1" as="geometry">
            <mxPoint x="-12.5" y="-28" as="sourcePoint" />
            <mxPoint x="118.75" y="70" as="targetPoint" />
          </mxGeometry>
        </mxCell>
      </root>
    </mxGraphModel>
  </diagram>
  <diagram id="Ntfur6tjuaf_aIVKPrnj" name="MENU ADMIN">
    <mxGraphModel dx="1050" dy="669" grid="1" gridSize="10" guides="1" tooltips="1" connect="1" arrows="1" fold="1" page="1" pageScale="1" pageWidth="900" pageHeight="1600" math="0" shadow="0">
      <root>
        <mxCell id="0" />
        <mxCell id="1" parent="0" />
        <mxCell id="DiO_UcIQNmzozY1xCNJu-1" value="" style="verticalLabelPosition=bottom;verticalAlign=top;html=1;shape=offPageConnector;rounded=0;size=0.5;" vertex="1" parent="1">
          <mxGeometry x="420" y="40" width="60" height="60" as="geometry" />
        </mxCell>
        <mxCell id="DiO_UcIQNmzozY1xCNJu-2" value="ADMIN" style="text;html=1;align=center;verticalAlign=middle;resizable=0;points=[];autosize=1;strokeColor=none;fillColor=none;" vertex="1" parent="1">
          <mxGeometry x="420" y="50" width="60" height="30" as="geometry" />
        </mxCell>
        <mxCell id="DiO_UcIQNmzozY1xCNJu-3" value="" style="endArrow=classic;html=1;rounded=0;exitX=0.5;exitY=1;exitDx=0;exitDy=0;" edge="1" parent="1" source="DiO_UcIQNmzozY1xCNJu-1">
          <mxGeometry width="50" height="50" relative="1" as="geometry">
            <mxPoint x="449" y="110" as="sourcePoint" />
            <mxPoint x="449" y="160" as="targetPoint" />
          </mxGeometry>
        </mxCell>
        <mxCell id="Z_TX2xEbqXaIUy2Jbmp_-3" value="" style="edgeStyle=orthogonalEdgeStyle;rounded=0;orthogonalLoop=1;jettySize=auto;html=1;" edge="1" parent="1" source="Z_TX2xEbqXaIUy2Jbmp_-1" target="Z_TX2xEbqXaIUy2Jbmp_-2">
          <mxGeometry relative="1" as="geometry" />
        </mxCell>
        <mxCell id="Z_TX2xEbqXaIUy2Jbmp_-1" value="INPUT:&lt;div&gt;1.&lt;/div&gt;&lt;div&gt;2.&lt;/div&gt;&lt;div&gt;0.LOGOUT&lt;/div&gt;" style="shape=parallelogram;html=1;strokeWidth=2;perimeter=parallelogramPerimeter;whiteSpace=wrap;rounded=1;arcSize=12;size=0.23;" vertex="1" parent="1">
          <mxGeometry x="400" y="160" width="100" height="60" as="geometry" />
        </mxCell>
        <mxCell id="Z_TX2xEbqXaIUy2Jbmp_-6" value="" style="edgeStyle=orthogonalEdgeStyle;rounded=0;orthogonalLoop=1;jettySize=auto;html=1;" edge="1" parent="1" source="Z_TX2xEbqXaIUy2Jbmp_-2" target="Z_TX2xEbqXaIUy2Jbmp_-5">
          <mxGeometry relative="1" as="geometry" />
        </mxCell>
        <mxCell id="Z_TX2xEbqXaIUy2Jbmp_-14" value="NO" style="edgeLabel;html=1;align=center;verticalAlign=middle;resizable=0;points=[];" vertex="1" connectable="0" parent="Z_TX2xEbqXaIUy2Jbmp_-6">
          <mxGeometry x="-0.37" y="1" relative="1" as="geometry">
            <mxPoint as="offset" />
          </mxGeometry>
        </mxCell>
        <mxCell id="Z_TX2xEbqXaIUy2Jbmp_-9" value="" style="edgeStyle=orthogonalEdgeStyle;rounded=0;orthogonalLoop=1;jettySize=auto;html=1;" edge="1" parent="1" source="Z_TX2xEbqXaIUy2Jbmp_-2" target="Z_TX2xEbqXaIUy2Jbmp_-8">
          <mxGeometry relative="1" as="geometry" />
        </mxCell>
        <mxCell id="Z_TX2xEbqXaIUy2Jbmp_-12" value="YES" style="edgeLabel;html=1;align=center;verticalAlign=middle;resizable=0;points=[];" vertex="1" connectable="0" parent="Z_TX2xEbqXaIUy2Jbmp_-9">
          <mxGeometry x="-0.41" y="-1" relative="1" as="geometry">
            <mxPoint as="offset" />
          </mxGeometry>
        </mxCell>
        <mxCell id="Z_TX2xEbqXaIUy2Jbmp_-2" value="PILHAN = 1" style="strokeWidth=2;html=1;shape=mxgraph.flowchart.decision;whiteSpace=wrap;" vertex="1" parent="1">
          <mxGeometry x="400" y="260" width="100" height="100" as="geometry" />
        </mxCell>
        <mxCell id="Z_TX2xEbqXaIUy2Jbmp_-4" value="PILHAN = 0" style="strokeWidth=2;html=1;shape=mxgraph.flowchart.decision;whiteSpace=wrap;" vertex="1" parent="1">
          <mxGeometry x="680" y="260" width="100" height="100" as="geometry" />
        </mxCell>
        <mxCell id="Z_TX2xEbqXaIUy2Jbmp_-7" value="" style="edgeStyle=orthogonalEdgeStyle;rounded=0;orthogonalLoop=1;jettySize=auto;html=1;" edge="1" parent="1" source="Z_TX2xEbqXaIUy2Jbmp_-5" target="Z_TX2xEbqXaIUy2Jbmp_-4">
          <mxGeometry relative="1" as="geometry" />
        </mxCell>
        <mxCell id="Z_TX2xEbqXaIUy2Jbmp_-11" value="" style="edgeStyle=orthogonalEdgeStyle;rounded=0;orthogonalLoop=1;jettySize=auto;html=1;" edge="1" parent="1" source="Z_TX2xEbqXaIUy2Jbmp_-5" target="Z_TX2xEbqXaIUy2Jbmp_-10">
          <mxGeometry relative="1" as="geometry" />
        </mxCell>
        <mxCell id="Z_TX2xEbqXaIUy2Jbmp_-15" value="" style="edgeStyle=orthogonalEdgeStyle;rounded=0;orthogonalLoop=1;jettySize=auto;html=1;" edge="1" parent="1" source="Z_TX2xEbqXaIUy2Jbmp_-5" target="Z_TX2xEbqXaIUy2Jbmp_-4">
          <mxGeometry relative="1" as="geometry" />
        </mxCell>
        <mxCell id="Z_TX2xEbqXaIUy2Jbmp_-16" value="NO" style="edgeLabel;html=1;align=center;verticalAlign=middle;resizable=0;points=[];" vertex="1" connectable="0" parent="Z_TX2xEbqXaIUy2Jbmp_-15">
          <mxGeometry x="-0.22" y="1" relative="1" as="geometry">
            <mxPoint as="offset" />
          </mxGeometry>
        </mxCell>
        <mxCell id="Z_TX2xEbqXaIUy2Jbmp_-5" value="PILHAN = 2" style="strokeWidth=2;html=1;shape=mxgraph.flowchart.decision;whiteSpace=wrap;" vertex="1" parent="1">
          <mxGeometry x="540" y="260" width="100" height="100" as="geometry" />
        </mxCell>
        <mxCell id="Z_TX2xEbqXaIUy2Jbmp_-8" value="" style="verticalLabelPosition=bottom;verticalAlign=top;html=1;shape=mxgraph.flowchart.on-page_reference;" vertex="1" parent="1">
          <mxGeometry x="420" y="400" width="60" height="60" as="geometry" />
        </mxCell>
        <mxCell id="Z_TX2xEbqXaIUy2Jbmp_-10" value="" style="verticalLabelPosition=bottom;verticalAlign=top;html=1;shape=mxgraph.flowchart.on-page_reference;" vertex="1" parent="1">
          <mxGeometry x="560" y="400" width="60" height="60" as="geometry" />
        </mxCell>
        <mxCell id="Z_TX2xEbqXaIUy2Jbmp_-13" value="YES" style="text;html=1;align=center;verticalAlign=middle;resizable=0;points=[];autosize=1;strokeColor=none;fillColor=none;" vertex="1" parent="1">
          <mxGeometry x="565" y="360" width="50" height="30" as="geometry" />
        </mxCell>
        <mxCell id="Z_TX2xEbqXaIUy2Jbmp_-17" value="" style="endArrow=classic;html=1;rounded=0;exitX=0.5;exitY=1;exitDx=0;exitDy=0;exitPerimeter=0;" edge="1" parent="1" source="Z_TX2xEbqXaIUy2Jbmp_-8">
          <mxGeometry width="50" height="50" relative="1" as="geometry">
            <mxPoint x="420" y="350" as="sourcePoint" />
            <mxPoint x="320" y="530" as="targetPoint" />
            <Array as="points">
              <mxPoint x="450" y="530" />
            </Array>
          </mxGeometry>
        </mxCell>
        <mxCell id="Z_TX2xEbqXaIUy2Jbmp_-18" value="" style="endArrow=classic;html=1;rounded=0;exitX=0.5;exitY=1;exitDx=0;exitDy=0;exitPerimeter=0;" edge="1" parent="1">
          <mxGeometry width="50" height="50" relative="1" as="geometry">
            <mxPoint x="590" y="460" as="sourcePoint" />
            <mxPoint x="440" y="530" as="targetPoint" />
            <Array as="points">
              <mxPoint x="590" y="530" />
            </Array>
          </mxGeometry>
        </mxCell>
        <mxCell id="Z_TX2xEbqXaIUy2Jbmp_-19" value="" style="endArrow=classic;html=1;rounded=0;entryX=0;entryY=0.5;entryDx=0;entryDy=0;" edge="1" parent="1" target="Z_TX2xEbqXaIUy2Jbmp_-1">
          <mxGeometry width="50" height="50" relative="1" as="geometry">
            <mxPoint x="320" y="530" as="sourcePoint" />
            <mxPoint x="470" y="300" as="targetPoint" />
            <Array as="points">
              <mxPoint x="320" y="190" />
            </Array>
          </mxGeometry>
        </mxCell>
        <mxCell id="Z_TX2xEbqXaIUy2Jbmp_-20" value="" style="endArrow=classic;html=1;rounded=0;entryX=0.25;entryY=0;entryDx=0;entryDy=0;" edge="1" parent="1" target="Z_TX2xEbqXaIUy2Jbmp_-1">
          <mxGeometry width="50" height="50" relative="1" as="geometry">
            <mxPoint x="370" y="160" as="sourcePoint" />
            <mxPoint x="470" y="300" as="targetPoint" />
          </mxGeometry>
        </mxCell>
        <mxCell id="Z_TX2xEbqXaIUy2Jbmp_-21" value="1" style="text;html=1;align=center;verticalAlign=middle;resizable=0;points=[];autosize=1;strokeColor=none;fillColor=none;" vertex="1" parent="1">
          <mxGeometry x="435" y="415" width="30" height="30" as="geometry" />
        </mxCell>
        <mxCell id="Z_TX2xEbqXaIUy2Jbmp_-22" value="2" style="text;html=1;align=center;verticalAlign=middle;resizable=0;points=[];autosize=1;strokeColor=none;fillColor=none;" vertex="1" parent="1">
          <mxGeometry x="575" y="415" width="30" height="30" as="geometry" />
        </mxCell>
      </root>
    </mxGraphModel>
  </diagram>
  <diagram id="cytaePECbYvkoMCBoovg" name="MENU PEMBELI">
    <mxGraphModel dx="1050" dy="669" grid="1" gridSize="10" guides="1" tooltips="1" connect="1" arrows="1" fold="1" page="1" pageScale="1" pageWidth="900" pageHeight="1600" math="0" shadow="0">
      <root>
        <mxCell id="0" />
        <mxCell id="1" parent="0" />
        <mxCell id="ZTYd9mNhlX7y_euZpOAo-1" value="" style="verticalLabelPosition=bottom;verticalAlign=top;html=1;shape=offPageConnector;rounded=0;size=0.5;" vertex="1" parent="1">
          <mxGeometry x="410" y="20" width="60" height="60" as="geometry" />
        </mxCell>
        <mxCell id="ZTYd9mNhlX7y_euZpOAo-2" value="PEMBELI" style="text;html=1;align=center;verticalAlign=middle;resizable=0;points=[];autosize=1;strokeColor=none;fillColor=none;" vertex="1" parent="1">
          <mxGeometry x="400" y="20" width="80" height="30" as="geometry" />
        </mxCell>
        <mxCell id="ZTYd9mNhlX7y_euZpOAo-3" value="" style="shape=parallelogram;html=1;strokeWidth=2;perimeter=parallelogramPerimeter;whiteSpace=wrap;rounded=1;arcSize=12;size=0.23;" vertex="1" parent="1">
          <mxGeometry x="390" y="130" width="100" height="60" as="geometry" />
        </mxCell>
      </root>
    </mxGraphModel>
  </diagram>
</mxfile>
